<svg id="b" xmlns="http://www.w3.org/2000/svg" width="349.824" height="305.458" viewBox="0 0 349.824 305.458"><defs><style>.g{fill:#fff;}.h{fill:#fcdc4a;}.i{fill:#211715;}</style></defs><g id="c"><g id="d"><path class="g" d="M3.295,252.12c1.903-19.817,3.272-30.376,7.259-50.579,1.63-8.257,5.795-25.44,13.707-35.102,11.251-13.74,27.484-19.916,48.194-26.256,16.519,15.042,47.584,19.217,68.204,3.631,13.251,3.128,23.147,6.268,32.903,13.987,2.442,1.932,5.09,5.09,7.309,9.331,1.682,3.216,3.034,8.468,3.915,11.811,0,0,1.948,7.405,4.127,15.69-2.555,5.055-4.432,10.589-5.237,15.175-3.233,18.419-6.202,45.211-7.652,65.65-10.288-.004-27.736-.004-27.759-.006.313-3.319,1.36-15.367,2.515-28.775-5.94-.648-11.88-1.308-17.82-1.968-4.416-.492-9.012-.96-13.2.516-2.592.924-4.872,2.544-7.104,4.14-3.252,2.316-5.136,3.768-8.376,6.084l-1.386.991c2.09,11.38,4.613,27.3,5.562,36.581-40.397,8.498-68.754,11.881-79.35,9.043-11.055-2.961-18.475-11.107-22.969-19.231-4.86-8.787-3.859-22.172-2.843-30.714"></path><path class="g" d="M231.097,96.119c16.234-7.057,33.304-16.606,42.805-25.192,2.324,5.197,5.579,11.649,8.155,15.559,4.533,6.88,11.109,11.964,17.215,15.483,1.334-1.361,3.176-1.884,4.755-1.847,3.385.08,4.846,1.894,5.478,2.962,1.886,3.186,1.876,9.098.676,12.769-.849,2.6-2.244,6.578-5.684,9.459-1.417,1.187-3.514,1.982-5.531,1.665l-.533-.084c-.615,2.118-1.38,4.195-1.851,5.205-1.293,3.637-8.199,15.926-17.239,21.775.589,2.711,1.358,5.397,2.878,7.683,3.009,4.494,12.487,7.785,19.851,10.496-19.243,10.713-57.235,12.278-78.91-1.632,5.574-2.054,10.021-3.747,12.826-5.785.471-.342,1.908-1.844,2.043-2.65.379-2.272.718-4.263,1.033-6.552-4.425-2.116-8.43-5.466-12.262-9.947-5.07-5.929-7.992-12.344-9.626-17.669-2.139.578-4.468-.193-6.022-1.435-3.505-2.801-4.99-6.746-5.899-9.326-1.283-3.643-1.429-9.552.384-12.781.607-1.082,2.026-2.928,5.408-3.086,1.315-.061,2.823.263,4.082,1.14,5.004-1.689,10.437-3.804,15.967-6.208Z"></path><path class="g" d="M175.297,284.136c.866-20.517,4.401-51.482,8.328-73.852,1.499-8.539,6.736-20.382,13.141-26.214,3.507-3.185,6.976-5.868,11.246-7.931,4.658-2.244,9.385-4.287,14.077-6.434,21.367,14.604,60.045,13.254,79.702,2.504,12.259,5.441,24.553,11.998,31.097,23.514,4.389,7.753,6.93,16.745,8.063,25.583,1.873,14.539,5.256,51.217,6.464,62.675"></path><path class="g" d="M106.245,254.032c-.609.443-1.255.91-1.966,1.418l-1.386.991c1.588,8.645,3.426,19.912,4.634,28.897,1.318-.78,2.164-1.28,2.164-1.28,3.072-1.812,5.772-4.212,9.072-5.556,2.136-.876,4.776-1.452,7.08-1.656,5.413-.492,15.208-1.032,22.421-1.392.313-3.315,1.36-15.367,2.519-28.775-5.941-.648-11.882-1.308-17.823-1.968-4.416-.492-9.012-.96-13.2.516-2.592.924-4.872,2.544-7.104,4.14-2.538,1.808-4.243,3.089-6.41,4.666Z"></path><path class="g" d="M156.065,73.633c1.456-1.312,3.376-1.761,5.003-1.651,3.54.239,4.987,2.204,5.599,3.351,1.829,3.422,1.548,9.61.125,13.399-1.008,2.683-2.65,6.784-6.382,9.643-1.538,1.178-3.769,1.915-5.867,1.491l-.555-.112c-.739,2.189-1.635,4.329-2.174,5.365-1.615,3.983-10.312,17.907-20.893,23-.109,2.709-.217,5.422-.325,8.134l6.814,9.805c-20.36,12.79-48.843,8.468-64.595-5.545,4.064-1.55,8.962-3.442,9.127-3.489,3.089-1.151,4.146-3.688,4.769-6.413.425-1.879.751-3.575.943-5.436-3.395-2.322-6.52-5.412-9.503-9.225-5.037-6.439-7.803-13.288-9.271-18.936-2.266.505-4.67-.408-6.239-1.779-3.541-3.092-4.916-7.291-5.75-10.033-1.177-3.872-1.06-10.066.985-13.363.685-1.105,2.255-2.973,5.803-2.984,1.63-.005,3.517.566,4.886,1.969,0,0-.421-37.344,43.897-37.344,43.051,0,43.603,40.156,43.603,40.156Z"></path><g id="e"><path class="h" d="M310.65,115.852c-.849,2.6-2.244,6.578-5.684,9.459-1.417,1.187-3.514,1.982-5.531,1.665,0,0-.194-.03-.533-.084-.615,2.118-1.38,4.195-1.851,5.205-1.293,3.637-8.199,15.926-17.239,21.775.589,2.711,1.358,5.397,2.878,7.683,3.009,4.494,12.487,7.785,19.851,10.496,0,.027-.003.052-.003.079,6.685-.291,13.06-4.775,15.28-11.282,2.368-6.941-.268-16.035-2.228-23.101-2.351-8.476-3.641-17.029-4.203-25.698-.126,1.38-.377,2.695-.74,3.803Z" style="fill: rgb(82, 140, 237);"></path><path class="h" d="M213.221,173.711c2.953-1.344,5.916-2.657,8.868-4.008.505.345,1.029.673,1.553,1.001,0-.096-.009-.189-.009-.286,5.574-2.054,10.021-3.747,12.826-5.785.471-.342,1.909-1.844,2.043-2.65.379-2.272.718-4.263,1.033-6.552-4.425-2.116-8.43-5.466-12.262-9.947-5.07-5.929-7.992-12.344-9.626-17.669-2.139.578-4.468-.193-6.022-1.435-3.505-2.801-4.99-6.746-5.899-9.326-1.283-3.643-1.429-9.552.383-12.781.607-1.082,2.026-2.928,5.408-3.086,1.315-.061,2.823.263,4.082,1.14,5.004-1.689,10.437-3.804,15.967-6.208,16.234-7.057,33.304-16.606,42.805-25.192,2.324,5.197,5.579,11.649,8.155,15.559,4.533,6.88,11.109,11.964,17.214,15.483,1.334-1.361,3.176-1.884,4.755-1.847,3.385.081,4.846,1.894,5.478,2.962.523.884.895,1.981,1.142,3.178-.053-1.874-.084-3.752-.077-5.639l-.155.621c.141-7.286-.483-15.913-.79-19.525-1.066-12.52-6.896-26.438-15.118-34.107-3.274-3.054-4.416-4.615-7.581-6.411l-3.666-2.08c-1.816-.708-3.632-1.416-3.632-1.416-6.751-2.632-13.77-4.345-23.705-4.212-16.288.218-30.674,8.804-37.024,15.049-10.536,10.361-17.055,29.114-15.856,54.839.234,17.442-1.027,30.04-2.934,37.219-1.296,4.912-2.351,13.076-2.334,18.049.031,6.03,5.753,13.935,14.977,15.064Z" style="fill: rgb(82, 140, 237);"></path><path class="h" d="M62.398,38.823c4.217-13.312,12.803-22.025,20.51-27.38,8.585-5.966,19.182-9.35,31.522-8.954,11.763.378,21.019,3.984,28.908,9.513l6.638,5.443c8.221,7.921,15.486,20.094,15.664,37.711.06,5.941-.793,10.756-2.641,17.171-.562-.173-1.202-.296-1.932-.345-1.627-.11-3.546.339-5.003,1.651l-6.763-5.721c-2.059-5.71-6.918-12.101-12.049-16.811-2.994-2.749-5.086-3.986-7.845-5.293l-8.659-1.347c-5.942,2.282-14.376,7.204-19.099,9.632-1.127.579-2.398-.439-2.208-1.777.125-.881.157-1.815-.102-3.056-.268-1.284-1.23-1.856-2.004-1.481-6.609,3.2-16.154,11.716-21.59,17.395l-7.181,5.647c-1.369-1.403-3.256-1.974-4.886-1.969-.815.003-1.525.103-2.144.27-1.464-6.123-1.975-12.155-1.587-17.363.352-4.729,1.213-9.03,2.45-12.936Z" style="fill: rgb(82, 140, 237);"></path></g></g><g id="f"><path class="i" d="M71.118,142.207c13.955,12.318,34.611,16.595,52.542,12.197,5.268-1.292,10.356-3.409,14.961-6.276,2.617-1.629.21-5.783-2.423-4.145-14.829,9.231-34.455,9.464-50.156,2.214-4.158-1.92-8.092-4.349-11.53-7.384-2.308-2.037-5.716,1.345-3.394,3.394h0Z"></path><path class="i" d="M70.262,69.124c-2.715-2.61-6.835-3.392-10.335-1.974-2.806,1.136-4.496,3.5-5.366,6.333-1.936,6.305-.474,13.719,2.926,19.272,2.325,3.797,6.159,7.227,10.913,6.742,1.289-.132,2.4-1.009,2.4-2.4,0-1.196-1.103-2.532-2.4-2.4-3.749.382-6.176-2.967-7.657-5.985-1.243-2.533-2.073-5.385-2.185-8.207-.064-1.595.01-3.203.369-4.761.148-.643.325-1.311.593-1.907.146-.324.338-.618.514-.925.049-.086.405-.517.064-.112.731-.87,1.389-1.31,2.662-1.496,1.508-.221,2.998.149,4.107,1.214,2.228,2.141,5.627-1.249,3.394-3.394h0Z"></path><path class="i" d="M65.804,94.261c1.266,6.549,3.727,12.926,7.259,18.588,3.779,6.057,8.822,11.743,14.997,15.431,3.161,1.888,6.663,3.203,10.284,3.859,1.274.231,2.587-.348,2.952-1.676.32-1.164-.394-2.72-1.676-2.952-7.941-1.439-14.115-6.271-19.107-12.425-5.169-6.373-8.53-14.069-10.082-22.101-.246-1.273-1.772-2-2.952-1.676-1.332.366-1.923,1.675-1.676,2.952h0Z"></path><path class="i" d="M144.55,9.929c-15.167-10.557-35.76-12.972-52.914-5.911-14.1,5.804-25.471,17.539-30.756,31.846-3.924,10.623-4.286,22.103-1.844,33.103.669,3.014,5.298,1.739,4.629-1.276-3.598-16.208.01-33.556,11.243-46.033,4.531-5.033,9.663-9.013,15.766-11.989,7.775-3.792,16.507-5.189,25.104-4.722,9.549.518,18.514,3.673,26.351,9.127,1.064.741,2.666.195,3.284-.861.699-1.195.206-2.541-.861-3.284h0Z"></path><path class="i" d="M77.444,66.871c5.367-5.589,11.265-11.008,17.827-15.167.684-.433,1.379-.85,2.089-1.238.177-.097.364-.18.535-.286.377-.233.418,0,.158-.158-.094-.057-1.569.529-1.014-.242-.064.089.095.794.072.568.086.825-.1,1.632-.067,2.448.052,1.268.726,2.505,1.798,3.198,1.958,1.266,3.755.323,5.57-.643,1.659-.883,3.306-1.786,4.96-2.678,3.916-2.112,7.862-4.285,12.016-5.9,1.207-.469,2.045-1.611,1.676-2.952-.317-1.153-1.738-2.149-2.952-1.676-3.946,1.534-7.719,3.477-11.451,5.466-1.749.932-3.488,1.882-5.233,2.824-.745.402-1.49.803-2.24,1.196-.903.474-.249-.023.307.373.038.027.543.639.33.638-.009,0,.071-.783.076-.831.198-2.211-.267-4.959-2.39-6.115-1.936-1.054-3.867.188-5.533,1.171-3.569,2.105-6.862,4.702-10.028,7.363-3.457,2.905-6.773,5.99-9.901,9.247-2.14,2.229,1.249,5.627,3.394,3.394h0Z"></path><path class="i" d="M73.453,142.824c2.198-.839,4.394-1.683,6.591-2.525,1.332-.511,2.775-.946,4.033-1.622,4.602-2.472,5.354-8.369,5.926-13.026.154-1.251-1.214-2.453-2.4-2.4-1.432.064-2.235,1.06-2.4,2.4-.216,1.755-.649,4.274-1.347,6.217-.044.122-.089.243-.137.363.119-.275.124-.289.013-.042-.087.171-.167.344-.26.513-.108.196-.231.38-.347.57-.052.08-.107.158-.164.235.183-.232.188-.244.017-.036-.136.139-.261.287-.402.421-.095.091-.193.179-.294.264.225-.166.226-.168.003-.007-.178.112-.351.23-.536.332-.127.071-.257.138-.388.201-.228.105-.272.125-.131.06.185-.07-.105.031-.15.047-.215.076-.428.162-.642.243-.714.272-1.427.546-2.14.819-2.04.783-4.08,1.566-6.122,2.345-1.169.446-2.102,1.637-1.676,2.952.369,1.14,1.696,2.155,2.952,1.676h0Z"></path><path class="i" d="M.895,252.12c-1.178,9.974-1.862,20.967,2.381,30.348,1.99,4.399,5.094,8.531,8.464,11.962,3.857,3.927,8.481,7.008,13.633,8.953,5.598,2.113,11.652,2.208,17.562,1.999,8.739-.309,17.452-1.427,26.095-2.702,13.434-1.981,26.779-4.552,40.066-7.344,3.021-.635,1.743-5.263-1.276-4.629-11.664,2.451-23.371,4.722-35.143,6.59-8.653,1.373-17.358,2.561-26.107,3.105-3.182.198-6.375.31-9.563.213-1.273-.039-2.547-.112-3.814-.244-.284-.03-.567-.064-.85-.098.729.088-.158-.025-.326-.052-.493-.078-.984-.169-1.471-.277-9.163-2.036-16.547-8.71-21.314-16.563-5.635-9.283-4.761-20.895-3.536-31.263.152-1.289-1.212-2.4-2.4-2.4-1.424,0-2.247,1.107-2.4,2.4h0Z"></path><path class="i" d="M71.289,138.031c-17.961,5.525-37.354,12.085-49.341,27.489-5.644,7.253-8.854,16.313-11.278,25.084-2.452,8.874-4.009,18.014-5.513,27.087-1.892,11.416-3.154,22.913-4.262,34.428-.124,1.292,1.192,2.4,2.4,2.4,1.401,0,2.275-1.104,2.4-2.4.949-9.869,1.982-19.731,3.508-29.53,1.42-9.119,2.965-18.296,5.191-27.258,2.069-8.332,4.752-16.808,9.378-24.107,4.485-7.078,11.357-12.55,18.571-16.649,9.445-5.367,19.885-8.737,30.222-11.916,2.944-.905,1.688-5.54-1.276-4.629h0Z"></path><path class="i" d="M48.101,196.603c-.303,6.102-.709,12.2-1.156,18.293-.095,1.294,1.171,2.4,2.4,2.4,1.378,0,2.305-1.102,2.4-2.4.447-6.093.853-12.191,1.156-18.293.064-1.296-1.149-2.4-2.4-2.4-1.353,0-2.335,1.1-2.4,2.4h0Z"></path><path class="i" d="M36.093,257.659c13.137-.994,26.243-2.775,39.315-4.373,6.732-.823,13.463-1.662,20.186-2.555,1.347-.179,2.705-.327,4.046-.546.682-.112.109-.117-.309-.214-.218-.051-.117-.538-.125.011-.002.14.071.347.101.493.181.89.357,1.781.53,2.672.77,3.979,1.48,7.97,2.16,11.966,1.576,9.261,3.095,18.562,4.06,27.909.133,1.289,1.008,2.4,2.4,2.4,1.195,0,2.534-1.103,2.4-2.4-.901-8.736-2.276-17.431-3.712-26.092-.72-4.341-1.474-8.677-2.287-13.001-.32-1.7-.614-3.413-.998-5.1-.288-1.267-.946-2.356-2.124-2.978-1.093-.577-2.198-.455-3.371-.293-.553.076-1.106.151-1.659.226-.132.018-.586.079-.061.008-.138.018-.275.037-.413.055-.394.053-.789.105-1.183.157-1.48.196-2.961.388-4.441.579-3.61.465-7.221.919-10.832,1.366-7.994.99-15.992,1.95-23.995,2.866-6.551.749-13.11,1.547-19.686,2.045-1.293.098-2.4,1.033-2.4,2.4,0,1.223,1.1,2.498,2.4,2.4h0Z"></path><path class="i" d="M84.375,244.428c-5.171-3.349-10.18-6.959-15.276-10.421-3.113-2.115-6.234-4.221-9.399-6.258-2.208-1.421-4.696-3.354-7.299-3.959-2.971-.691-6.389.086-8.499,2.37-2.208,2.39-1.856,6.002.101,8.402.82,1.005,2.543.851,3.394,0,.994-.994.822-2.386,0-3.394-.215-.264-.309-1.278-.155-1.587.225-.452,1.049-.835,1.525-1.006,1.418-.509,2.736-.155,3.984.541,2.177,1.215,4.265,2.597,6.349,3.963,5.65,3.703,11.207,7.547,16.776,11.371,2.017,1.385,4.021,2.793,6.075,4.123,2.6,1.684,5.009-2.469,2.423-4.145h0Z"></path><path class="i" d="M58.994,239.937c-3.21-2.583-6.483-5.096-9.871-7.441-3.054-2.114-6.334-4.629-10.175-4.86-4.144-.25-7.514,2.939-7.63,7.073-.056,1.987.729,4.013,2.06,5.48,1.411,1.554,3.433,2.756,5.101,4.028,3.521,2.684,7.071,5.33,10.628,7.966,1.042.772,2.68.172,3.284-.861.715-1.222.184-2.51-.861-3.284-2.598-1.925-5.193-3.854-7.774-5.802-1.378-1.04-2.752-2.085-4.123-3.134-1.1-.842-2.673-1.671-3.245-2.96-.394-.887-.399-2.045.205-2.857.613-.823,1.453-.967,2.506-.84,1.163.14,2.338.809,3.402,1.454,1.374.833,2.717,1.719,4.04,2.631,3.11,2.144,6.117,4.432,9.059,6.8,1.009.812,2.408.986,3.394,0,.84-.84,1.015-2.577,0-3.394h0Z"></path><path class="i" d="M41.538,252.539c-.373-.269-.745-.542-1.113-.818-.184-.138-.367-.278-.55-.417-.434-.329.15.119-.242-.187-.724-.566-1.445-1.137-2.166-1.706-.335-.265-.693-.515-1.011-.8-.064-.057-.212-.281-.294-.303.225.302.267.347.126.137l-.074-.125c-.277-.493.056-.038-.005.037.023-.028-.119-.362-.138-.433-.012-.045-.056-.431-.099-.451.045.382.054.441.025.176-.007-.078-.013-.155-.016-.233-.017-.308.035-.619.018-.923-.012-.225-.132.577-.002.051.034-.137.059-.276.098-.412.029-.1.22-.541.031-.152-.194.399.035-.049.08-.128.087-.156.193-.3.286-.452.102-.143.066-.098-.108.137.055-.067.113-.132.173-.195.117-.126.252-.235.37-.36.134-.115.083-.079-.154.109.068-.05.138-.098.209-.143.141-.092.295-.162.437-.25.162-.078.098-.054-.191.073.078-.03.157-.057.237-.081.161-.05.325-.08.488-.121.183-.033.11-.022-.219.031.085-.007.171-.011.257-.011.082-.001.668.055.291-.002-.388-.059.322.092.392.112,1.205.349,2.667-.424,2.952-1.676.292-1.282-.385-2.579-1.676-2.952-2.322-.672-4.709-.035-6.483,1.573-1.506,1.365-2.255,3.302-2.296,5.307-.039,1.948.612,4.043,2.178,5.286,1.9,1.508,3.796,3.028,5.764,4.447,1.022.737,2.718.21,3.284-.861.656-1.242.229-2.497-.861-3.284h0Z"></path><path class="i" d="M110.903,286.13c2.961-1.777,5.645-4.182,8.881-5.466,2.883-1.144,5.927-1.428,8.987-1.659,6.489-.49,12.99-.826,19.489-1.152,3.074-.154,3.093-4.955,0-4.8-6.72.336-13.445.678-20.153,1.203-3.397.265-6.795.64-9.981,1.931-3.527,1.43-6.41,3.857-9.645,5.798-2.646,1.588-.235,5.74,2.423,4.145h0Z"></path><path class="i" d="M105.491,257.522c3.159-2.262,6.258-4.606,9.438-6.839,3.155-2.215,6.273-3.854,10.198-4.027,4.098-.18,8.226.498,12.288.949,4.455.494,8.909.987,13.365,1.473,1.291.141,2.4-1.204,2.4-2.4,0-1.415-1.106-2.259-2.4-2.4-4.621-.504-9.24-1.015-13.86-1.528-4.192-.465-8.48-1.189-12.706-.836-4.261.355-7.868,1.959-11.351,4.375-3.311,2.297-6.518,4.742-9.795,7.088-1.052.754-1.558,2.091-.861,3.284.608,1.04,2.224,1.62,3.284.861h0Z"></path><path class="i" d="M135.598,145.107c8.159,1.854,16.496,3.694,24.164,7.133,3.566,1.599,6.976,3.535,10.158,5.806,3.316,2.367,5.932,5.186,7.998,8.71,2.315,3.948,3.396,8.435,4.552,12.825.786,2.984,5.418,1.719,4.629-1.276-1.091-4.14-2.136-8.401-4.083-12.24-2.023-3.987-4.823-7.686-8.364-10.436-6.702-5.204-14.306-8.759-22.397-11.234-5.061-1.549-10.223-2.746-15.382-3.918-3.008-.683-4.292,3.943-1.276,4.629h0Z"></path><path class="i" d="M157.762,75.33c1.148-.965,2.793-1.168,4.211-.797.607.159,1.173.387,1.673.777-.175-.136.368.378.438.451.345.362-.123-.236.147.18,1.533,2.364,1.517,5.68,1.167,8.393-.363,2.816-1.433,5.524-2.849,7.941-1.446,2.47-4.096,5.823-7.369,5.275-1.277-.214-2.584.336-2.952,1.676-.316,1.15.391,2.737,1.676,2.952,7.986,1.337,12.83-6.318,15.201-12.81,1.17-3.203,1.499-6.868,1.078-10.243-.377-3.025-1.381-5.927-3.904-7.802-3.561-2.647-8.613-2.162-11.912.611-.993.835-.861,2.533,0,3.394.983.983,2.399.837,3.394,0h0Z"></path><path class="i" d="M152.603,95.93c-.434,1.812-1.032,3.583-1.702,5.321-.236.611-.48,1.218-.753,1.814-.13.283-.276.559-.406.842-.006.014-.415.951-.167.396.18-.403.014-.031-.029.059-.878,1.82-1.89,3.56-2.994,5.253-3.251,4.987-7.2,9.765-11.955,13.404-2.726,2.086-5.73,3.733-9.1,4.401-1.272.252-2.002,1.768-1.676,2.952.365,1.327,1.676,1.929,2.952,1.676,6.732-1.334,12.46-6.087,16.979-11.022,3.736-4.08,7.26-8.725,9.693-13.719.094-.193.185-.387.273-.583.118-.261.595-1.261.262-.577.421-.864.796-1.75,1.16-2.639.838-2.047,1.576-4.149,2.092-6.301.719-3.002-3.908-4.284-4.629-1.276h0Z"></path><path class="i" d="M165.521,72.239c1.241-4.447,2.184-8.97,2.443-13.59.252-4.491-.065-9.022-.782-13.458-1.181-7.316-3.865-14.439-8.026-20.588-2.055-3.037-4.431-5.855-7.064-8.406-2.22-2.151-5.618,1.24-3.394,3.394,4.427,4.289,8.008,9.322,10.474,14.982,3.016,6.924,4.196,14.62,4.062,22.136-.087,4.871-1.037,9.574-2.342,14.253-.832,2.98,3.798,4.252,4.629,1.276h0Z"></path><path class="i" d="M104.675,109.101c2.618,1.492,5.474,2.15,8.48,2.247,2.824.091,6.138-.279,8.497-1.998,1.012-.737,1.612-2.118.861-3.284-.646-1.003-2.199-1.652-3.284-.861-.29.212-.597.397-.918.558-.091.046-.189.083-.278.133-.245.136.537-.202.139-.059-.264.095-.527.191-.796.271-.31.091-.624.169-.941.234-.159.033-.319.062-.479.089-.219.037-.424.051-.086.017-.905.092-1.807.129-2.717.101-.44-.014-.88-.04-1.318-.082-.023-.002-.801-.098-.308-.027-.182-.026-.363-.056-.544-.089-.653-.117-1.298-.273-1.929-.479-.269-.088-.531-.194-.797-.291-.286-.105.498.24.134.053-.11-.056-.226-.105-.337-.159-.326-.16-.642-.337-.957-.517-1.091-.622-2.674-.293-3.284.861-.602,1.14-.304,2.62.861,3.284h0Z"></path><path class="i" d="M112.656,89.045c.294,1.286.565,2.587.745,3.895l-.086-.638c.043.321.084.642.131.963l-.086-.638c.033.25.049.498.015.748l.086-.638c-.017.093-.04.179-.075.267l.242-.573c-.03.062-.06.114-.101.17l.375-.486c-.027.035-.058.066-.092.094l.486-.375c-.123.092-.263.152-.404.211l.573-.242c-.166.063-.332.111-.508.141l.638-.086c-.188.024-.37.023-.558,0l.638.086c-.226-.034-.445-.097-.67-.135-.654-.11-1.257-.105-1.849.242-.498.291-.973.862-1.103,1.434-.14.614-.11,1.304.242,1.849.319.494.829,1.002,1.434,1.103.484.081.939.197,1.437.234.786.06,1.543-.196,2.242-.522.835-.39,1.449-1.176,1.667-2.068.189-.77.099-1.467-.024-2.239l.086.638c-.194-1.585-.499-3.157-.854-4.714-.28-1.225-1.757-2.063-2.952-1.676-1.283.415-1.976,1.64-1.676,2.952h0Z"></path><path class="i" d="M90.263,75.907c-.8,2.331-.502,7.762,3.943,8.366,5.896.154,6.42-6.384,4.535-9.526-1.544-2.573-6.288-3.775-8.478,1.16Z"></path><path class="i" d="M137.47,77.424c.649,2.378.003,7.778-4.472,8.096-5.894-.225-5.997-6.783-3.914-9.798,1.706-2.468,6.517-3.363,8.386,1.702Z"></path><path class="i" d="M128.197,47.88c4.323,2.062,7.79,5.038,10.987,8.584s6.148,7.593,7.804,12.086c.448,1.216,1.627,2.04,2.952,1.676,1.17-.322,2.127-1.73,1.676-2.952-1.913-5.189-5.123-9.802-8.78-13.914-3.496-3.932-7.448-7.35-12.217-9.624-1.169-.558-2.591-.323-3.284.861-.612,1.047-.314,2.723.861,3.284h0Z"></path><path class="i" d="M128.525,127.971c-.11,2.76-.219,5.519-.329,8.279-.05,1.256,1.14,2.456,2.4,2.4,1.343-.06,2.347-1.054,2.4-2.4.11-2.76.219-5.519.329-8.279.05-1.256-1.14-2.456-2.4-2.4-1.343.06-2.347,1.054-2.4,2.4h0Z"></path><path class="i" d="M152.249,202.11c-.794,7.993-1.401,16.008-2.092,24.01-1.074,12.439-2.143,24.878-3.228,37.316-.349,4.005-.688,8.012-1.065,12.014-.122,1.292,1.19,2.4,2.4,2.4,1.399,0,2.278-1.104,2.4-2.4.865-9.192,1.621-18.395,2.416-27.593,1.046-12.104,2.087-24.209,3.137-36.313.273-3.145.519-6.294.831-9.435.128-1.292-1.195-2.4-2.4-2.4-1.405,0-2.271,1.105-2.4,2.4h0Z"></path><path class="i" d="M301.695,174.563c4.927-.019,9.66-1.904,13.305-5.21,3.926-3.56,5.922-8.503,6.136-13.744.227-5.548-1.19-11.098-2.646-16.405-1.62-5.906-3.002-11.836-3.82-17.912-.921-6.846-1.254-13.765-1.236-20.67.008-3.089-4.792-3.093-4.8,0-.031,11.756,1.048,23.56,3.912,34.982,1.249,4.981,2.914,9.893,3.555,15.008.574,4.583.336,9.338-2.497,13.177-2.762,3.744-7.286,5.955-11.91,5.973-3.088.012-3.094,4.812,0,4.8h0Z"></path><path class="i" d="M286.183,43.272c1.644.951,3.019,2.096,4.379,3.416,1.535,1.49,3.138,2.927,4.58,4.508,2.829,3.1,5.063,6.722,6.904,10.482,3.693,7.544,5.376,15.598,5.944,23.924.355,5.204.584,10.424.494,15.641-.053,3.09,4.747,3.09,4.8,0,.084-4.868-.113-9.739-.425-14.596-.264-4.106-.596-8.201-1.438-12.236-1.908-9.142-5.799-18.176-11.811-25.378-1.649-1.975-3.556-3.692-5.394-5.485-1.721-1.679-3.522-3.212-5.61-4.42-2.679-1.549-5.099,2.597-2.423,4.145h0Z"></path><path class="i" d="M280.735,35.389c-8.436-3.268-17.484-4.749-26.532-4.218-9.198.539-18.208,3.479-26.184,8.047-5.958,3.412-11.151,7.741-15.173,13.324-4.265,5.92-7.099,12.856-8.929,19.888-2.619,10.062-3.27,20.594-2.805,30.95.138,3.076,4.939,3.093,4.8,0-.7-15.596.969-32.509,9.468-46.02,3.193-5.077,7.439-9.201,12.549-12.474,6.974-4.467,15.009-7.635,23.256-8.642,9.599-1.173,19.297.297,28.275,3.776,1.209.468,2.634-.516,2.952-1.676.373-1.357-.463-2.482-1.676-2.952h0Z"></path><path class="i" d="M201.115,103.383c.139,11.196.048,22.799-2.182,33.69-.424,2.069-1.006,4.098-1.411,6.171-.587,3.004-1.011,6.046-1.317,9.091-.24,2.39-.54,4.913-.301,7.315.236,2.379,1.018,4.65,2.22,6.716,3.216,5.526,8.831,8.92,15.093,9.748,1.287.17,2.4-1.225,2.4-2.4,0-1.438-1.109-2.229-2.4-2.4-4.533-.599-8.66-3.439-10.948-7.37-.887-1.524-1.544-3.45-1.611-4.926-.113-2.473.162-5.002.43-7.458.503-4.619,1.648-9.036,2.549-13.574.889-4.473,1.385-9.033,1.727-13.577.527-6.993.64-14.014.553-21.025-.038-3.086-4.838-3.095-4.8,0h0Z"></path><path class="i" d="M272.077,72.688c2.842,6.261,5.882,12.654,10.149,18.085,4.227,5.38,9.726,9.692,15.607,13.136,2.671,1.564,5.09-2.583,2.423-4.145-5.508-3.225-10.646-7.239-14.577-12.311-3.976-5.131-6.789-11.31-9.458-17.189-.536-1.18-2.247-1.467-3.284-.861-1.213.71-1.399,2.099-.861,3.284h0Z"></path><path class="i" d="M272.442,69.015c-5.795,5.269-12.525,9.503-19.295,13.394-8.04,4.622-16.39,8.724-24.922,12.355-4.411,1.877-8.89,3.603-13.427,5.152-2.907.993-1.659,5.631,1.276,4.629,8.712-2.975,17.216-6.594,25.497-10.609,8.207-3.979,16.261-8.372,23.826-13.479,3.639-2.457,7.187-5.091,10.439-8.047,2.29-2.083-1.112-5.469-3.394-3.394h0Z"></path><path class="i" d="M301.023,103.601c1.06-.973,2.509-1.259,3.903-.992,1.14.219,1.721.615,2.369,1.429-.342-.43.041.085.096.188.155.289.33.566.453.872.225.558.367,1.192.49,1.785.313,1.508.333,3.081.233,4.614-.176,2.685-1.076,5.394-2.328,7.768-1.472,2.791-3.791,5.731-7.272,5.311-1.289-.156-2.4,1.214-2.4,2.4,0,1.426,1.107,2.244,2.4,2.4,7.479.903,12.025-7.394,13.709-13.484,1.462-5.288,1.385-13.465-3.777-16.806-3.484-2.255-8.279-1.624-11.268,1.12-2.281,2.093,1.121,5.481,3.394,3.394h0Z"></path><path class="i" d="M296.871,123.179c-.596,3.062-1.785,6.214-2.777,8.736-.143.364.244-.52-.012.026-.081.173-.157.349-.238.523-.186.398-.381.793-.582,1.184-.51.994-1.056,1.97-1.627,2.93-2.934,4.934-6.509,9.602-10.918,13.31-2.435,2.048-5.179,3.684-8.233,4.43-2.999.732-1.729,5.362,1.276,4.629,6.381-1.558,11.652-6.256,15.776-11.165,3.398-4.046,6.545-8.567,8.69-13.418.222-.502.429-1.011.63-1.522-.258.656.223-.517.319-.75.173-.422.336-.848.493-1.276.759-2.07,1.408-4.196,1.83-6.361.247-1.271-.359-2.59-1.676-2.952-1.177-.323-2.704.398-2.952,1.676h0Z"></path><path class="i" d="M213.996,125.256c1.995,8.347,6.003,16.141,11.679,22.581,5.497,6.237,12.54,11.178,20.928,12.326,1.283.176,2.577-.31,2.952-1.676.308-1.12-.384-2.775-1.676-2.952-7.674-1.05-13.778-5.383-18.809-11.092-5.135-5.826-8.644-12.927-10.445-20.463-.718-3.003-5.347-1.732-4.629,1.276h0Z"></path><path class="i" d="M217.486,101.164c-2.888-2.531-6.941-3.065-10.419-1.419-2.496,1.181-3.985,3.638-4.633,6.24-1.53,6.151.098,13.245,3.693,18.414,2.66,3.825,6.403,6.529,11.235,5.833,1.284-.185,1.989-1.815,1.676-2.952-.379-1.379-1.664-1.862-2.952-1.676-3.175.457-5.67-3.092-6.95-5.492-1.241-2.327-2.167-4.938-2.379-7.577-.2-2.489-.191-5.536,1.332-7.644-.305.423.087-.083.169-.167.316-.326.212-.243.478-.42.45-.3.895-.474,1.418-.595,1.364-.315,2.866-.092,3.938.848,2.314,2.029,5.723-1.353,3.394-3.394h0Z"></path><path class="i" d="M277.03,154.518c.712,3.212,1.699,6.508,3.775,9.122,1.458,1.836,3.486,3.214,5.506,4.364,4.98,2.834,10.507,4.652,15.861,6.632,1.216.45,2.63-.503,2.952-1.676.369-1.341-.456-2.501-1.676-2.952-4.771-1.765-9.653-3.387-14.135-5.827-1.812-.986-3.468-1.996-4.803-3.552-.133-.155-.372-.51-.648-.984-.377-.647-.707-1.32-.971-2.02-.536-1.423-.903-2.902-1.232-4.384-.668-3.014-5.297-1.739-4.629,1.276h0Z"></path><path class="i" d="M223.436,172.867c4.258-1.568,8.741-3.028,12.631-5.409,1.516-.928,2.942-2.132,3.818-3.711.6-1.083.67-2.369.868-3.571.215-1.312.42-2.625.606-3.942.181-1.282-.313-2.578-1.676-2.952-1.124-.309-2.77.385-2.952,1.676-.172,1.217-.359,2.431-.557,3.643-.098.603-.199,1.206-.299,1.809-.043.257-.108.518-.13.777-.012.096-.031.19-.056.283.149-.318.179-.392.092-.221-.113.111-.199.328-.287.465-.098.137-.072.108.076-.087-.063.079-.128.157-.195.234-.228.256-.462.5-.702.745-.398.405-.051-.066.105-.046-.052-.007-.419.294-.467.326-.332.223-.672.434-1.017.637-.73.428-1.485.815-2.249,1.18-.826.394-1.699.774-2.289,1.017-2.177.895-4.387,1.706-6.596,2.519-1.216.448-2.04,1.627-1.676,2.952.322,1.17,1.73,2.126,2.952,1.676h0Z"></path><path class="i" d="M177.697,284.136c.748-17.476,2.644-34.937,5.009-52.262.6-4.393,1.241-8.781,1.935-13.161.623-3.934,1.15-7.927,2.202-11.774,1.088-3.98,2.623-7.837,4.554-11.483,1.823-3.441,3.973-6.792,6.829-9.471,4.011-3.762,8.426-6.591,13.396-8.912,5.461-2.55,11.008-4.912,16.438-7.53,1.167-.563,1.478-2.229.861-3.284-.698-1.193-2.112-1.426-3.284-.861-9.459,4.561-19.749,7.919-27.932,14.681-3.374,2.788-6.198,5.91-8.532,9.622-2.375,3.775-4.254,7.883-5.74,12.083-1.371,3.877-2.135,7.826-2.807,11.871-.734,4.414-1.407,8.838-2.036,13.269-1.335,9.396-2.492,18.817-3.463,28.257-.99,9.628-1.816,19.282-2.229,28.953-.132,3.089,4.668,3.082,4.8,0h0Z"></path><path class="i" d="M296.002,172.282c8.959,3.853,18.25,7.847,25.804,14.152,3.574,2.983,6.698,6.444,9.008,10.499,2.823,4.954,4.776,10.357,6.132,15.884,1.877,7.648,2.474,15.603,3.298,23.418.896,8.497,1.735,17.001,2.568,25.505.727,7.414,1.421,14.831,2.201,22.24.136,1.289,1.006,2.4,2.4,2.4,1.192,0,2.537-1.103,2.4-2.4-1.603-15.23-2.968-30.484-4.557-45.715-1.934-18.538-3.291-39.264-17.562-52.992-8.24-7.927-18.905-12.676-29.271-17.135-1.19-.512-2.573-.354-3.284.861-.592,1.012-.336,2.769.861,3.284h0Z"></path><path class="i" d="M223.914,173.685c9.246,5.275,19.838,7.789,30.366,8.76,10.634.982,21.529.32,31.945-2.063,5.21-1.192,10.317-2.881,15.119-5.24,1.163-.571,1.482-2.223.861-3.284-.694-1.186-2.116-1.434-3.284-.861-8.248,4.051-17.696,5.98-26.851,6.726-10.196.831-20.598.26-30.537-2.242-5.302-1.335-10.442-3.229-15.197-5.942-2.687-1.533-5.108,2.612-2.423,4.145h0Z"></path><path class="i" d="M205.306,221.304c-.027,2.668-.224,5.335-.3,8.002-.131,4.625-.081,9.249.127,13.871.406,9.03.864,18.059,1.396,27.083.272,4.604.562,9.208.911,13.807.098,1.293,1.033,2.4,2.4,2.4,1.223,0,2.499-1.1,2.4-2.4-.655-8.642-1.132-17.299-1.582-25.954-.475-9.133-1.081-18.287-.886-27.436.067-3.125.302-6.248.334-9.373.031-3.09-4.769-3.092-4.8,0h0Z"></path><path class="i" d="M308.609,218.081c.835,17.012,1.155,34.043.838,51.074-.092,4.943-.234,9.885-.416,14.825-.114,3.089,4.687,3.085,4.8,0,.626-17.033.715-34.079.178-51.116-.155-4.929-.359-9.857-.601-14.783-.151-3.075-4.952-3.093-4.8,0h0Z"></path><path class="i" d="M250.167,137.884c2.615,1.343,5.409,1.906,8.352,1.853,3.018-.054,6.047-.685,8.442-2.596.986-.787.882-2.584,0-3.394-1.046-.961-2.342-.839-3.394,0-.272.217.555-.375.228-.179-.066.039-.127.088-.191.13-.163.107-.332.207-.504.299-.068.037-.545.212-.565.276.026-.086.571-.217.113-.054-.121.043-.24.088-.362.129-.637.213-1.29.354-1.951.469-.457.079.192-.005-.113.015-.192.013-.384.039-.576.054-.463.035-.926.052-1.39.055-.415.002-.831-.007-1.246-.031-.19-.011-.381-.024-.571-.041-.065-.006-.789-.09-.205-.011-.618-.084-1.233-.213-1.832-.385-.256-.073-.51-.155-.761-.246-.082-.03-.163-.063-.246-.092-.283-.102-.287-.254.129.058-.256-.192-.646-.305-.934-.453-1.116-.573-2.656-.327-3.284.861-.58,1.098-.331,2.671.861,3.284h0Z"></path><path class="i" d="M256.951,118.319c.374,1.362.737,2.747.955,4.144l-.086-.638c.027.199.038.395.015.595l.086-.638c-.016.092-.038.177-.073.264l.242-.573c-.018.04-.039.078-.064.114l.375-.486c-.043.055-.084.097-.138.142l.486-.375c-.13.086-.27.154-.414.216l.573-.242c-.152.059-.305.103-.466.131l.638-.086c-.194.025-.384.022-.577-.002l.638.086c-.39-.058-.771-.124-1.164-.173-.567-.07-1.313.318-1.697.703-.416.416-.73,1.099-.703,1.697.028.621.232,1.264.703,1.697l.486.375c.374.217.778.326,1.211.328l.049.006-.638-.086c.471.069.942.19,1.42.189.77,0,1.442-.22,2.122-.557.795-.394,1.4-1.161,1.607-2.023.183-.761.09-1.436-.049-2.197-.238-1.309-.557-2.606-.909-3.889-.16-.582-.582-1.13-1.103-1.434-.514-.301-1.273-.429-1.849-.242-1.238.401-2.032,1.655-1.676,2.952h0Z"></path><path class="i" d="M235.189,106.791c-.666,2.256-.156,7.421,4.107,7.812,5.628-.098,5.856-6.353,3.927-9.27-1.579-2.389-6.151-3.337-8.035,1.458Z"></path><path class="i" d="M280.259,106.275c.718,2.24.326,7.415-3.927,7.904-5.629.031-6-6.217-4.139-9.178,1.524-2.424,6.073-3.477,8.066,1.274Z"></path></g></g></svg>