<?xml version="1.0" encoding="UTF-8"?>
<svg id="_レイヤー_1" data-name="レイヤー_1" xmlns="http://www.w3.org/2000/svg" xmlns:xlink="http://www.w3.org/1999/xlink" version="1.1" viewBox="0 0 106.82 157.41">
  <!-- Generator: Adobe Illustrator 30.0.0, SVG Export Plug-In . SVG Version: 2.1.1 Build 123)  -->
  <defs>
    <style>
      .st0 {
        fill: none;
      }

      .st1 {
        fill: #528ced;
      }

      .st2 {
        fill: #fff;
      }

      .st3 {
        clip-path: url(#clippath);
      }

      .st4 {
        fill: #211715;
      }
    </style>
    <clipPath id="clippath">
      <rect class="st0" x="-6.64" y="-6.87" width="123.82" height="164.28"/>
    </clipPath>
  </defs>
  <g class="st3">
    <path class="st2" d="M33.52,169.59c-4.36-.02-8.26-.06-11.35-.11h-.83c.01.64.01,1.31.01,2v.25c-1.68-.12-3.5-.25-5.47-.36-2.46-.15-5.15-.3-8.02-.5-.99-.07-1.99-.15-3.02-.23-1.1-.08-1.92-1.04-1.84-2.13,0,0,0-.02,0-.03,1.18-13.15,2.91-44.57,5.41-59.06.17-.96.34-1.85.51-2.66.91-4.2,2.01-8.46,4.33-12.09,4.59-7.18,13.06-10.71,21-13.81l1.46-.57.74.54c5.38,3.36,11.59,5.15,17.93,5.18,9.22,0,15.81-3.2,17.66-4.94.08-.07.16-.15.22-.24,7.98,3.11,16.49,6.64,21.1,13.84,2.32,3.63,3.42,7.89,4.33,12.09.05.21.09.43.14.65,2.85,14.1,4.74,51.01,5.98,63.13-1.66.14-3.27.27-4.83.37h-.03c-2.87.2-5.56.35-8.01.49-1.95.13-3.77.22-5.33.4,0-.68,0-1.34.01-1.98-11.81-.2-35.41-.15-52.1-.24Z"/>
    <path class="st2" d="M72.19,81.13s-.1-.04-.14-.06c-.09-.04-.21-.1-.37-.17-.88-.41-2.63-1.25-3.24-1.55-2.45-1.24-2.58-2.7-2.91-4.56-.34-1.74-.55-3.5-.64-5.27,6.5-2.62,11.75-11.4,12.66-13.86.14-.41.41-1.18.65-2.1.32-.05.51-.08.51-.08,1.09-.18,2.12-.65,2.99-1.34,1.06-.9,1.91-2.02,2.5-3.29,1.25-2.5,1.79-5.29,1.55-8.08-.03-.71-.21-1.41-.53-2.05-.56-.93-1.5-1.57-2.58-1.72-1.1-.16-2.21.17-3.05.89,0,0,.15-20.44-25.41-20.44s-25.7,20.45-25.7,20.45c-.84-.73-1.95-1.06-3.05-.9-1.08.15-2.03.78-2.59,1.72-.32.64-.5,1.33-.53,2.05-.23,2.78.31,5.58,1.55,8.08.59,1.26,1.44,2.38,2.5,3.29.86.7,1.89,1.16,2.99,1.35l.97.15c.95,3.53,2.63,6.81,4.94,9.64,2.03,2.53,4.59,4.59,7.5,6.03-.16,1.32-.19,2.83-.55,4.88-.32,1.86-.22,3.52-2.81,4.46-.17.06-3.87,1.82-4.13,1.93,0,0,2.02,14.89,17.13,14.89s19.78-14.32,19.78-14.32Z"/>
    <path class="st1" d="M82.44,25.33c-.55-3.53-1.79-6.92-3.66-9.97-1.05-1.69-2.3-3.26-3.7-4.68-.56-.57-1.42-1.4-2-1.91-1.52-1.22-3.15-2.3-4.86-3.23-1.36-.75-2.78-1.38-4.25-1.9-3.24-1.12-6.64-1.68-10.07-1.66-6.1-.1-12.08,1.73-17.06,5.25-7.15,4.93-11.54,12.95-11.84,21.63-.02,2.66.19,5.31.61,7.94l.02.16c1.01-.09,2.02.24,2.79.91.37.03.75.03,1.12,0,1.44-.1,2.69-1.05,3.18-2.4,3.45-7.17,9.05-12.81,18.34-15.14.86-.31,1.81-.29,2.66.06,1.09.65.72,2.09,1.63,2.88.96.84,2.71.5,4.03.05,2-.68,3.95-1.5,5.84-2.44l.41.13c1.63.74,3.06,1.86,4.18,3.25,2.69,3.25,4.5,7.14,5.23,11.29.03.96.49,1.87,1.25,2.46,1.05.6,2.35.54,3.35-.15.73-.64,1.68-.97,2.65-.92l.02-.14c.45-2.62.61-5.28.49-7.94-.05-1.19-.17-2.38-.36-3.55Z"/>
    <path class="st4" d="M62.89,69.85c.16,1.64.35,3.28.62,4.91.12,1.31.48,2.59,1.08,3.77.82,1.25,1.99,2.22,3.37,2.8,1.2.65,2.44,1.23,3.71,1.73,1.06.29,2.16-.34,2.46-1.4.27-1.06-.35-2.15-1.4-2.46.76.26-.05-.03-.25-.13l-.78-.37c-.55-.27-1.11-.53-1.66-.8-.5-.24-.96-.52-1.45-.79-.12-.09-.09-.06.08.07-.06-.05-.12-.1-.17-.15-.11-.1-.2-.2-.3-.3-.05-.05-.09-.1-.13-.15.16.22.2.26.12.14-.06-.11-.13-.22-.2-.32-.03-.06-.08-.24-.14-.28.12.29.14.34.07.14l-.04-.12c-.08-.24-.14-.48-.19-.72-.12-.57-.22-1.15-.31-1.73-.06-.39-.12-.77-.17-1.16.05.35-.02-.15-.03-.24-.02-.19-.05-.37-.07-.56-.08-.63-.14-1.26-.2-1.89-.02-1.09-.91-1.98-2-2-1.1.01-1.99.9-2,2h0Z"/>
    <path class="st4" d="M40.7,69.98c-.08.83-.14,1.66-.23,2.49-.01.12-.03.24-.04.36.03-.22.03-.22,0,.03-.04.26-.08.53-.13.79-.05.32-.1.63-.15.95-.05.3-.1.6-.17.9-.03.11-.06.21-.09.32-.16.51.17-.27,0,.03-.07.13-.14.25-.22.38-.16.27.33-.34-.06.04-.06.06-.12.11-.18.17.24-.18.27-.2.09-.07-.17.1-.34.2-.51.29-.45.25.39-.15-.15.06-.18.07-.37.15-.55.23-.13.06-.27.12-.4.18-.43.2-.87.4-1.3.61-.78.37-1.56.76-2.35,1.1-.95.56-1.27,1.78-.72,2.74.58.93,1.78,1.24,2.74.72,1.33-.57,2.62-1.23,3.93-1.84.45-.21-.55.22-.2.08.44-.16.87-.35,1.28-.57.7-.41,1.3-.96,1.76-1.62.59-.97.94-2.07,1.02-3.21.26-1.72.46-3.42.62-5.15,0-1.1-.9-2-2-2-1.09.03-1.97.91-2,2h0Z"/>
    <path class="st4" d="M17.84,109.68c0,7.49.36,14.98.63,22.46.26,7.4.27,14.81.52,22.21.19,5.74.37,11.48.37,17.22,0,2.57,4,2.58,4,0,0-9.98-.5-19.95-.6-29.93-.07-6.77-.44-13.54-.66-20.3-.12-3.89-.25-7.78-.26-11.66,0-2.57-4-2.58-4,0h0Z"/>
    <path class="st4" d="M85.14,109.68c0,7.44-.36,14.88-.62,22.32-.26,7.32-.27,14.64-.52,21.95-.2,5.87-.38,11.74-.38,17.62,0,2.57,4,2.58,4,0,0-10,.5-19.99.6-29.98.07-6.75.45-13.5.66-20.25.12-3.89.25-7.78.26-11.66,0-2.57-4-2.58-4,0h0Z"/>
    <path class="st4" d="M71.83,82.78c7,2.73,14.93,5.83,19.38,12.26,3.85,5.56,4.87,12.87,5.75,19.45,1.72,12.81,2.53,25.85,3.47,38.78.42,5.76.79,11.52,1.37,17.27l2-2c-5.31.45-10.63.69-15.94,1.06-2.55.18-2.57,4.18,0,4,5.31-.37,10.63-.61,15.94-1.06.99-.08,2.12-.85,2-2-1.22-12.04-1.81-24.15-2.82-36.2-.55-6.58-1.14-13.17-2.01-19.72-.9-6.84-1.92-14.18-5.45-20.22-4.84-8.29-14.12-12.14-22.64-15.47-1.06-.28-2.16.34-2.46,1.4-.27,1.06.35,2.15,1.4,2.46h0Z"/>
    <path class="st4" d="M33.72,78.93c-8.08,3.16-16.65,6.7-21.77,14.1-2.74,3.95-4.03,8.76-4.99,13.41-.7,3.38-1.16,6.81-1.58,10.24-1.84,15.01-2.69,30.13-3.84,45.2-.12,1.62-.25,3.24-.38,4.86-.17,2-.28,4.01,1.65,5.26,1.17.58,2.47.85,3.78.8,1.44.11,2.88.21,4.32.29,2.88.18,5.77.33,8.65.53,2.57.18,2.56-3.82,0-4-2.36-.16-4.72-.29-7.08-.43-2.4-.04-4.8-.2-7.19-.49-.08-.01-.28.02-.34-.06.02.02.1.13.05.02-.02-.23,0-.46.05-.69.05-.6.1-1.21.15-1.81.11-1.38.22-2.75.33-4.13.53-6.92,1.01-13.85,1.54-20.77.56-7.24,1.16-14.48,1.97-21.69.32-2.89.68-5.79,1.15-8.66.55-4.25,1.65-8.41,3.27-12.38,3.93-8.66,13-12.46,21.33-15.72,1.05-.32,1.66-1.4,1.4-2.46-.3-1.06-1.4-1.69-2.46-1.4h0Z"/>
    <path class="st4" d="M35.45,82.55c2.23,1.48,4.65,2.63,7.21,3.43,3.99,1.39,8.2,2.07,12.43,2.01,4.04-.04,8.06-.73,11.88-2.04,2.46-.72,4.73-1.96,6.66-3.65,1.82-1.82-1-4.65-2.83-2.83-.16.16-.32.3-.49.45.36-.3-.04.03-.13.08-.4.26-.81.52-1.23.75-1.07.58-2.19,1.06-3.35,1.45-3.54,1.19-7.25,1.8-10.98,1.8-5.79.03-12.36-1.5-17.15-4.91-.96-.55-2.17-.23-2.74.72-.53.96-.22,2.16.72,2.74h0Z"/>
    <path class="st4" d="M84.24,37.35c1.27-7.84.54-16.12-3.73-22.99-4.13-6.52-10.56-11.25-18.02-13.25-13.52-3.64-28.55,1.86-35.63,14.12-3.94,6.82-4.4,14.51-3.17,22.13.3,1.06,1.4,1.68,2.46,1.4,1.05-.31,1.67-1.4,1.4-2.46-.94-5.81-.76-11.83,1.81-17.23,2.16-4.47,5.52-8.25,9.71-10.91,11.5-7.34,27.72-4.72,36.31,5.85,5.05,6.22,6.25,14.55,5,22.28-.26,1.06.36,2.14,1.4,2.46,1.06.28,2.16-.34,2.46-1.4h0Z"/>
    <path class="st4" d="M65.88,18.31c-1.71.94-3.47,1.77-5.29,2.48-.85.35-1.72.65-2.61.89-.3.08-.61.12-.92.13-.16,0-.45-.1-.36-.01-.37-.36-.42-1.37-.7-1.84-.47-.77-1.21-1.35-2.07-1.62-1.71-.54-3.66.11-5.3.63-6,1.87-11.21,5.66-14.85,10.79-.93,1.31-1.76,2.69-2.48,4.13-.4.78-1.22,2.51-2.24,1.97-2.27-1.2-4.3,2.25-2.02,3.45,1.46.75,3.17.77,4.65.07,1.43-.81,2.54-2.09,3.14-3.62,1.35-2.72,3.15-5.2,5.31-7.33,2.23-2.15,4.87-3.84,7.75-4.97.78-.3,1.56-.57,2.36-.81.46-.14,1.98-.8,2.46-.51-.17-.11.4,1.43.46,1.54.42.8,1.11,1.43,1.95,1.77,2,.82,4.19.07,6.1-.64,2.29-.86,4.52-1.88,6.67-3.05,2.26-1.24.24-4.69-2.02-3.45h0Z"/>
    <path class="st4" d="M65.1,22.96c.76.37,1.45.86,2.05,1.45.72.67,1.38,1.41,1.95,2.22,1.37,1.88,2.45,3.96,3.2,6.17.68,2.06.63,4.55,2.12,6.25,1.59,1.81,4.3,1.64,6.23.57,2.25-1.24.24-4.7-2.02-3.45-.29.19-.62.29-.96.29.31.03-.24-.07-.29-.09.22.08-.01,0-.12-.07s-.06-.03.18.14c-.11-.13-.13-.13-.04-.02.03.22-.09-.15-.14-.24-.15-.36-.24-.74-.29-1.12-.39-2.25-1.09-4.43-2.09-6.48-1.74-3.69-4.66-8.07-8.72-9.46-1.07-.3-2.17.33-2.46,1.39-.3,1.07.33,2.17,1.39,2.46Z"/>
    <path class="st4" d="M81.01,39.31c.76-.57,1.84-.43,2.43.32.3.63.42,1.33.37,2.02.03.86-.03,1.72-.17,2.56-.56,3.04-2.07,6.72-5.45,7.33-1.06.3-1.68,1.4-1.4,2.46.31,1.05,1.4,1.67,2.46,1.4,5.48-.98,8.1-7.15,8.51-12.12.22-2.61-.05-5.52-2.3-7.2-2.22-1.59-5.25-1.42-7.28.4-.77.78-.77,2.04,0,2.83.79.76,2.04.76,2.83,0h0Z"/>
    <path class="st4" d="M76.68,50.64c-.1,1.3-.38,2.58-.83,3.8-.06.2-.48,1.23-.18.58-.12.27-.25.54-.38.8-.81,1.58-1.76,3.1-2.82,4.53-2.38,3.27-5.76,6.82-9.8,7.77-2.51.59-1.44,4.45,1.06,3.86,5.1-1.2,9.05-5.36,12.05-9.42,2.58-3.5,4.7-7.47,4.88-11.91.1-2.57-3.9-2.57-4,0h0Z"/>
    <path class="st4" d="M29.9,36.48c-2.04-1.82-5.06-1.99-7.28-.4-2.25,1.67-2.51,4.59-2.3,7.2.41,4.97,3.03,11.14,8.52,12.12,1.06.26,2.14-.35,2.46-1.4.28-1.06-.34-2.16-1.4-2.46-3.39-.61-4.9-4.28-5.45-7.33-.14-.8-.2-1.61-.17-2.42-.05-.7.06-1.41.31-2.07.53-.8,1.61-1.01,2.41-.48.03.02.06.04.08.06.79.75,2.04.75,2.83,0,.77-.78.77-2.04,0-2.83h0Z"/>
    <path class="st4" d="M27.58,50.5c.82,5.25,3.02,10.2,6.39,14.31,3.46,4.36,8.48,7.21,14.01,7.93,1.1,0,1.99-.9,2-2-.02-1.09-.91-1.98-2-2-4.64-.5-8.55-3.52-11.41-7.04-2.73-3.58-4.49-7.81-5.13-12.27-.3-1.06-1.4-1.68-2.46-1.4-1.05.31-1.67,1.4-1.4,2.46h0Z"/>
    <path class="st4" d="M49.17,59.08c1.63.85,3.45,1.27,5.28,1.24,1.96.07,3.89-.52,5.47-1.67.38-.38.59-.88.59-1.42,0-.53-.21-1.04-.59-1.41-.38-.37-.88-.58-1.41-.59-.52.03-1.02.24-1.41.59.7-.54.04-.06-.17.06-.17.09-.59.22.06,0-.14.05-.28.11-.42.15-.39.12-.78.17-1.17.27.19-.05.4-.05.08-.02-.12.01-.23.02-.35.03-.28.02-.56.03-.83.02-.25,0-.5,0-.75-.03-.11,0-.23-.02-.34-.03l-.2-.02c-.16-.02-.08,0,.22.03-.33-.13-.75-.14-1.1-.24-.15-.05-.3-.1-.46-.15-.42-.15.45.21.06.03-.19-.09-.37-.18-.56-.28-.95-.56-2.18-.24-2.74.72s-.24,2.18.72,2.74h0Z"/>
    <path class="st4" d="M53.1,47.06c.23.82.41,1.65.54,2.49l-.07-.53c.02.11.02.23,0,.34l.07-.53c0,.05-.02.1-.04.15l.2-.48s-.03.07-.05.1l.31-.4s-.05.06-.08.08l.4-.31c-.06.04-.13.07-.2.1l.48-.2c-.11.05-.22.08-.33.1l.53-.07c-.1.01-.21.01-.31,0l.53.07c-.12-.02-.23-.04-.35-.06-.26-.08-.53-.1-.8-.04-.26.01-.52.09-.74.24-.95.56-1.28,1.78-.72,2.74,0,0,0,0,0,0l.31.4c.24.25.55.42.88.51.33.04.65.13.99.14.54,0,1.07-.13,1.54-.38.64-.3,1.11-.87,1.29-1.56.12-.52.11-1.07-.01-1.59-.13-.8-.32-1.6-.53-2.38-.14-.5-.47-.93-.92-1.2-.95-.56-2.18-.24-2.74.72h0c-.26.47-.33,1.02-.2,1.54h0Z"/>
    <path class="st4" d="M40.66,39.83c-.42,1.35-.15,4.45,2.41,4.72,3.38-.02,3.56-3.77,2.42-5.53-.93-1.44-3.67-2.05-4.83.82Z"/>
    <path class="st4" d="M67.71,39.83c.42,1.35.14,4.45-2.41,4.72-3.38-.02-3.56-3.77-2.42-5.53.93-1.44,3.67-2.05,4.83.82Z"/>
  </g>
</svg>